<?xml version="1.0"?>
<svg version="1.1" xmlns="http://www.w3.org/2000/svg" xmlns:xlink="http://www.w3.org/1999/xlink" width="256" height="256">
    <desc iVinci="yes" version="4.6" gridStep="20" showGrid="no" snapToGrid="no" codePlatform="0"/>
    <g id="Layer1" name="Back" opacity="1">
        <g id="Shape1">
            <desc shapeID="1" type="0" basicInfo-basicType="2" basicInfo-roundedRectRadius="4" basicInfo-polygonSides="6" basicInfo-starPoints="5" bounding="rect(-9.35806,-24.3893,18.7161,48.7785)" text="" font-familyName="Helvetica Neue" font-pixelSize="40" font-bold="1" font-underline="0" font-alignment="1" strokeStyle="0" markerStart="0" markerEnd="0" shadowEnabled="0" shadowOffsetX="0" shadowOffsetY="2" shadowBlur="4" shadowOpacity="160" blurEnabled="0" blurRadius="4" transform="matrix(4.74106,0,0,4.10978,211.633,155.766)" pers-center="0,0" pers-size="0,0" pers-start="0,0" pers-end="0,0" locked="0" mesh="" flag=""/>
            <path id="shapePath1" d="M167.266,71.9701 C167.266,62.8909 175.756,55.531 186.23,55.531 L237.036,55.531 C247.51,55.531 256,62.8909 256,71.9701 L256,239.561 C256,248.64 247.51,256 237.036,256 L186.23,256 C175.756,256 167.266,248.64 167.266,239.561 L167.266,71.9701 Z" style="stroke:none;fill-rule:evenodd;fill:#006eb8;fill-opacity:1;"/>
        </g>
        <g id="Shape2">
            <desc shapeID="2" type="0" basicInfo-basicType="2" basicInfo-roundedRectRadius="4" basicInfo-polygonSides="6" basicInfo-starPoints="5" bounding="rect(-22.8305,-24.1844,45.6611,48.3686)" text="" font-familyName="Helvetica" font-pixelSize="20" font-bold="0" font-underline="0" font-alignment="1" strokeStyle="0" markerStart="0" markerEnd="0" shadowEnabled="0" shadowOffsetX="0" shadowOffsetY="2" shadowBlur="4" shadowOpacity="160" blurEnabled="0" blurRadius="4" transform="matrix(3.66633,0,0,4.14461,83.5611,155.766)" pers-center="0,0" pers-size="0,0" pers-start="0,0" pers-end="0,0" locked="0" mesh="" flag=""/>
            <path id="shapePath2" d="M-0.14299,72.1092 C-0.14299,62.9531 6.42285,55.531 14.5223,55.531 L152.6,55.531 C160.7,55.531 167.266,62.9531 167.266,72.1092 L167.266,239.421 C167.266,248.578 160.7,256 152.6,256 L14.5223,256 C6.42285,256 -0.14299,248.578 -0.14299,239.421 L-0.14299,72.1092 Z" style="stroke:none;fill-rule:evenodd;fill:#0cb14b;fill-opacity:1;"/>
        </g>
    </g>
    <g id="Layer2" name="Layer 1" opacity="1">
        <g id="Shape3">
            <desc shapeID="3" type="2" basicInfo-basicType="0" basicInfo-roundedRectRadius="12" basicInfo-polygonSides="6" basicInfo-starPoints="5" bounding="rect(-83.7333,-180.757,167.467,361.514)" text="knx" font-familyName="HermesFB" font-pixelSize="100" font-bold="0" font-underline="0" font-alignment="1" strokeStyle="0" markerStart="0" markerEnd="0" shadowEnabled="0" shadowOffsetX="0" shadowOffsetY="2" shadowBlur="4" shadowOpacity="160" blurEnabled="0" blurRadius="4" transform="matrix(1,0,0,1,83.5967,180.614)" pers-center="0,0" pers-size="0,0" pers-start="0,0" pers-end="0,0" locked="0" mesh="" flag=""/>
            <path id="shapePath3" d="M55.2248,211.764 L33.9248,185.964 L53.6248,162.764 C55.1248,160.964 55.4248,160.064 53.0248,160.064 L44.1248,160.064 C42.9248,160.064 42.0248,161.164 41.2248,162.364 L25.0248,181.364 L25.0248,142.564 C25.0248,140.364 25.0248,139.564 22.6248,139.564 L16.4248,139.564 C14.4248,139.564 14.0248,140.564 14.0248,142.564 L14.0248,210.164 C14.0248,212.764 14.6248,213.864 16.8248,213.864 L23.0248,213.864 C24.9248,213.864 25.0248,212.664 25.0248,210.064 L25.0248,190.764 L41.7248,211.164 C43.2248,212.864 44.1248,213.964 45.4248,213.964 L54.1248,213.964 C56.0248,213.964 56.5248,213.464 55.2248,211.764 M106.425,209.264 L106.425,176.064 C106.425,163.264 99.1248,158.864 90.6248,158.864 C83.0248,158.864 78.1248,161.664 74.7248,166.364 C74.7248,161.764 74.0248,160.064 72.3248,160.064 L65.9248,160.064 C63.9248,160.064 63.5248,161.164 63.5248,163.164 L63.5248,210.164 C63.5248,212.764 64.1248,213.864 66.3248,213.864 L72.6248,213.864 C74.5248,213.864 74.6248,212.664 74.6248,210.064 L74.6248,179.964 C74.6248,175.064 78.0248,168.564 85.7248,168.564 C92.6248,168.564 95.1248,173.164 95.1248,178.464 L95.1248,210.264 C95.1248,212.764 96.0248,213.864 97.7248,213.864 L104.225,213.864 C106.025,213.864 106.425,212.564 106.425,209.264 M156.812,210.364 L142.312,186.064 L156.312,163.064 C157.512,160.964 157.912,160.064 155.112,160.064 L149.712,160.064 C148.112,160.064 147.312,161.064 146.012,163.264 L137.212,178.164 L128.612,163.264 C127.412,161.064 126.612,160.064 125.012,160.064 L117.412,160.064 C114.812,160.064 115.012,160.964 116.212,163.064 L130.712,187.364 L116.812,210.364 C115.212,212.964 115.212,213.864 117.212,213.864 L122.812,213.864 C124.512,213.864 125.112,213.364 126.812,210.464 L135.812,195.264 L144.612,210.464 C146.212,213.064 146.712,213.864 148.912,213.864 L156.112,213.864 C158.012,213.864 158.312,212.964 156.812,210.364 Z" style="stroke:none;fill-rule:nonzero;fill:#ffffff;fill-opacity:1;"/>
        </g>
        <g id="Shape4">
            <desc shapeID="4" type="2" basicInfo-basicType="0" basicInfo-roundedRectRadius="12" basicInfo-polygonSides="6" basicInfo-starPoints="5" bounding="rect(-44.3219,-180.78,88.6436,361.56)" text="d" font-familyName="HermesFB" font-pixelSize="100" font-bold="0" font-underline="0" font-alignment="1" strokeStyle="0" markerStart="0" markerEnd="0" shadowEnabled="0" shadowOffsetX="0" shadowOffsetY="2" shadowBlur="4" shadowOpacity="160" blurEnabled="0" blurRadius="4" transform="matrix(1,0,0,1,211.679,180.637)" pers-center="0,0" pers-size="0,0" pers-start="0,0" pers-end="0,0" locked="0" mesh="" flag=""/>
            <path id="shapePath4" d="M233.541,209.972 L233.541,142.572 C233.541,140.472 233.441,139.572 230.641,139.572 L224.241,139.572 C222.941,139.572 222.441,140.772 222.441,142.872 L222.441,166.472 C218.641,160.872 213.741,158.672 206.041,158.672 C194.541,158.672 188.341,169.672 188.341,187.272 C188.341,207.172 196.041,214.972 205.841,214.972 C213.541,214.972 218.741,212.772 222.441,208.172 L222.441,210.972 C222.441,213.772 223.341,213.872 224.841,213.872 L231.141,213.872 C233.341,213.872 233.541,212.572 233.541,209.972 M221.641,198.272 C221.641,200.972 217.741,207.272 210.941,207.272 C203.841,207.272 200.141,201.072 200.141,191.272 L200.141,182.872 C200.141,172.972 203.841,166.272 210.641,166.272 C218.541,166.272 221.641,173.372 221.641,178.472 L221.641,198.272 Z" style="stroke:none;fill-rule:nonzero;fill:#ffffff;fill-opacity:1;"/>
        </g>
    </g>
</svg>
